<?xml version="1.0" encoding="utf-8"?>
<!-- Generator: Adobe Illustrator 16.0.0, SVG Export Plug-In . SVG Version: 6.00 Build 0)  -->
<!DOCTYPE svg PUBLIC "-//W3C//DTD SVG 1.1//EN" "http://www.w3.org/Graphics/SVG/1.1/DTD/svg11.dtd">
<svg version="1.1" id="Layer_1" xmlns="http://www.w3.org/2000/svg" xmlns:xlink="http://www.w3.org/1999/xlink" x="0px" y="0px"
	 width="96px" height="96px" viewBox="0 0 96 96" enable-background="new 0 0 96 96" xml:space="preserve">
<g>
	<path d="M87.588,27.006H74.629c0.877-1.793,1.595-3.793,2.141-5.983c1.414-5.657,1.219-10.63,1.21-10.839L77.67,3l-3.562,6.246
		c-1.84,3.226-4.104,5.976-6.729,8.175c-2.098,1.757-4.435,3.171-6.945,4.205c-1.59,0.654-3.052,1.072-4.269,1.341H39.83
		c-4.509-1-12.451-4.103-17.936-13.721L18.333,3l-0.31,7.184c-0.009,0.209-0.204,5.182,1.209,10.839
		c0.547,2.189,1.265,4.19,2.141,5.983H8.425l-0.041,2.031c-0.005,0.262-0.076,6.481,4.494,11.188c2.8,2.885,6.662,4.543,11.5,4.943
		c-0.002,6.21,0.913,10.783,2.78,13.937c3.39,5.726,4.231,22.733,4.27,28.805l0.003,0.521l0.25,0.458
		c0.292,0.536,1.14,1.57,3.525,2.468c2.915,1.096,7.222,1.652,12.8,1.652s9.884-0.556,12.8-1.652
		c2.386-0.897,3.233-1.932,3.525-2.468l0.25-0.458l0.004-0.521c0.037-6.068,0.877-23.074,4.27-28.805
		c1.868-3.154,2.782-7.727,2.78-13.936c4.838-0.4,8.7-2.058,11.501-4.943c4.569-4.708,4.498-10.926,4.493-11.188L87.588,27.006z
		 M26.116,27.006c-1.872-2.964-2.863-6.489-3.386-9.53c1.046,1.161,2.16,2.233,3.338,3.212c1.747,1.45,3.637,2.694,5.641,3.719
		c-1.268,0.664-2.731,1.551-3.906,2.6H26.116z M30.696,54.179c-1.575-0.828-2.015-3.093-0.982-5.057
		c1.033-1.965,3.148-2.886,4.722-2.057c1.576,0.829,2.016,3.092,0.982,5.056C34.386,54.086,32.271,55.008,30.696,54.179z
		 M60.452,86.958c-0.509,0.305-1.595,0.804-3.675,1.216c-1.1-1.635-3.534-3.829-8.68-3.854v-0.001c-0.015,0-0.03,0-0.046,0.001
		c-0.015,0-0.03-0.001-0.046-0.001v0.001c-5.162,0.025-7.595,2.235-8.689,3.87c-2.134-0.414-3.241-0.922-3.757-1.23
		c-0.016-0.843-0.051-2.215-0.126-3.93c3.006-2.633,8.413-9.04,8.612-21.186c0.277-16.854-10.914-19.381-6.769-25.785
		c4.145-6.404,8.704-5.022,10.775-5.022c2.073,0,6.631-1.382,10.775,5.022c4.145,6.404-7.045,8.931-6.769,25.785
		c0.197,12.028,5.501,18.428,8.522,21.107C60.504,84.701,60.469,86.102,60.452,86.958z M65.409,54.179
		c-1.575,0.829-3.69-0.093-4.723-2.058c-1.033-1.964-0.593-4.229,0.982-5.056c1.575-0.829,3.69,0.092,4.724,2.057
		C67.425,51.086,66.984,53.351,65.409,54.179z M69.886,27.006h-1.677c-1.177-1.05-2.643-1.938-3.911-2.602
		c2.002-1.024,3.891-2.268,5.636-3.716c1.179-0.979,2.293-2.051,3.338-3.212C72.75,20.517,71.758,24.041,69.886,27.006z"/>
</g>
</svg>
