<?xml version="1.0" encoding="utf-8"?>
<!-- Generator: Adobe Illustrator 16.0.0, SVG Export Plug-In . SVG Version: 6.00 Build 0)  -->
<!DOCTYPE svg PUBLIC "-//W3C//DTD SVG 1.1//EN" "http://www.w3.org/Graphics/SVG/1.1/DTD/svg11.dtd">
<svg version="1.1" id="Layer_1" xmlns="http://www.w3.org/2000/svg" xmlns:xlink="http://www.w3.org/1999/xlink" x="0px" y="0px"
	 width="512px" height="512px" viewBox="0 0 512 512" enable-background="new 0 0 512 512" xml:space="preserve">
<g>
	<path fill="#5D5D5D" d="M403.766,391.73c0,18.909-12.314,35.001-29.35,40.669V302.652h-19.289
		c-25.395,0-46.053-20.658-46.053-46.053c0-25.396,20.658-46.056,46.053-46.056h19.289V79.601
		c17.033,5.668,29.35,21.758,29.35,40.669v90.276h21.422V120.27c0-35.493-28.771-64.27-64.27-64.27H151.074
		c-35.496,0-64.27,28.776-64.27,64.27v271.46c0,35.491,28.773,64.27,64.27,64.27h209.844c35.496,0,64.27-28.776,64.27-64.27v-89.078
		h-21.422V391.73z"/>
	<path fill="#5D5D5D" d="M421.963,227.406h-62.354c-10.225,0-19.225,5.303-24.414,13.298c8.031,0.828,14.297,7.614,14.297,15.864
		c0,8.223-6.225,14.986-14.215,15.852c5.199,7.926,14.162,13.174,24.332,13.174h62.354c1.785,0,3.232-1.447,3.232-3.232V230.64
		C425.195,228.854,423.748,227.406,421.963,227.406z"/>
</g>
</svg>
